<svg width="101" height="101" viewBox="0 0 101 101" fill="none" xmlns="http://www.w3.org/2000/svg">
<path  d="M42.2101 33.0766C43.6386 29.9997 44.2962 26.3752 44.2962 21.8674C44.2962 17.3596 43.6386 13.7351 42.2101 10.6581C39.1338 3.84714 32.3201 0 22.3242 0H4.41846V43.6253H22.4338C32.3201 43.6253 39.0242 39.7781 42.2101 33.0766" fill="#D9D9D9"/>
<path d="M31.9914 89.3382C30.0149 90.988 27.3771 91.9771 23.972 91.9771C19.0289 91.9771 15.5142 89.9988 13.6436 86.1517C12.5439 83.8449 12.2151 80.9869 12.2151 77.1397C12.2151 73.1831 12.6536 70.4383 13.6436 68.1278C15.401 64.3902 18.806 62.3023 23.972 62.3023C27.3771 62.3023 29.9053 63.182 31.8818 64.8282C33.6392 66.478 34.7388 68.6753 34.8485 71.5333H44.8444C44.6252 66.478 42.7582 62.1928 39.1303 59.1159C35.5061 55.9294 30.3401 54.0605 24.1876 54.0605C14.3013 54.0605 7.48753 58.2362 4.19209 65.2698C2.76723 68.679 2 72.5261 2 77.0302C2 81.6475 2.65763 85.491 4.30535 88.787C7.60079 95.9301 14.5241 99.9963 24.4105 99.9963C30.5629 99.9963 35.9445 98.237 39.5724 94.941C42.8678 92.083 44.954 87.7979 45.0672 82.8521H34.9581C34.8485 85.6042 33.7488 87.8015 31.9914 89.3382Z" fill="#D9D9D9"/>
<path d="M96.26 65.1641C93.0742 58.3495 86.2641 54.1738 76.3741 54.1738C66.4841 54.1738 59.674 58.3495 56.3786 65.2736C54.8405 68.6791 54.0732 72.7452 54.0732 77.1435C54.0732 81.6477 54.8405 85.7138 56.4918 89.0098C59.7873 95.9339 66.4878 100 76.3778 100C86.2677 100 92.9682 95.9339 96.2637 89.0098C97.9114 85.7138 98.6823 81.5382 98.6823 77.0304C98.6786 72.5262 97.9077 68.5696 96.26 65.1641" fill="#D9D9D9"/>
<path d="M78.2344 11.3009L52.5942 36.9411L59.7448 44.0916L85.4183 18.418V39.7419H95.5307V1.18848L56.9771 1.18854V11.3009H78.2344Z" fill="#D9D9D9"/>
</svg>
