<svg width="101" height="101" viewBox="0 0 101 101" fill="none" xmlns="http://www.w3.org/2000/svg">
<path  d="M13.8664 35.7193V7.80378H20.7861C27.0481 7.80378 30.8916 9.8916 32.6526 13.9577C33.6427 16.0456 34.0811 18.4619 34.0811 21.7615C34.0811 25.167 33.6427 27.587 32.6526 29.5653C30.8952 33.522 27.1614 35.7193 20.7861 35.7193H13.8664" fill="#D9D9D9"/>

<path d="M87.0313 85.7138C85.274 89.4514 81.9785 91.7583 76.4837 91.7583C70.9889 91.7583 67.5838 89.4514 65.8265 85.7138C64.7268 83.2975 64.2884 80.6585 64.2884 77.034C64.2884 73.4059 64.7268 70.7706 65.8265 68.3542C67.5838 64.6166 70.9889 62.3098 76.3741 62.3098C81.8689 62.3098 85.274 64.6166 87.0313 68.3542C88.2406 70.7706 88.5694 73.4095 88.5694 77.034C88.5694 80.6585 88.131 83.407 87.0313 85.7138" fill="#D9D9D9"/>
</svg>
